<svg width="168" height="90" viewBox="0 0 168 90" fill="none" xmlns="http://www.w3.org/2000/svg">
<path fill-rule="evenodd" clip-rule="evenodd" d="M161.44 83.6583C161.44 83.9381 161.534 84.2179 161.72 84.4045C161.907 84.591 162.093 84.6843 162.466 84.6843C162.746 84.6843 162.933 84.591 163.119 84.4977C163.306 84.3112 163.399 84.1247 163.399 83.8449C163.399 83.6583 163.306 83.4718 163.212 83.2853C163.119 83.192 162.933 83.0988 162.746 83.0055L161.44 82.5392C160.974 82.3526 160.601 82.0729 160.321 81.7931C160.042 81.5133 159.948 81.0469 159.948 80.5806C159.948 80.3008 160.042 80.021 160.135 79.7412C160.228 79.4615 160.415 79.2749 160.601 79.0884C160.788 78.9019 161.067 78.7153 161.44 78.6221C161.72 78.5288 162.187 78.4355 162.653 78.4355C163.492 78.4355 164.052 78.6221 164.518 78.9951C164.891 79.3682 165.078 79.8345 165.078 80.4874V80.7672H163.492C163.492 80.3941 163.399 80.1143 163.306 79.9278C163.212 79.7412 162.933 79.648 162.653 79.648C162.466 79.648 162.187 79.7412 162.093 79.8345C161.907 79.9278 161.814 80.1143 161.814 80.3941C161.814 80.5806 161.907 80.7672 162 80.8604C162.093 80.9537 162.28 81.1402 162.653 81.2335L163.772 81.6065C164.332 81.7931 164.705 82.0729 164.985 82.3526C165.264 82.6324 165.358 83.0988 165.358 83.6583C165.358 84.0314 165.264 84.4045 165.171 84.591C165.078 84.8708 164.891 85.0573 164.611 85.2438C164.425 85.4304 164.145 85.5236 163.772 85.6169C163.492 85.7102 163.119 85.7102 162.746 85.7102C162.28 85.7102 161.814 85.6169 161.44 85.5236C161.067 85.4304 160.788 85.2438 160.601 85.0573C160.415 84.8708 160.228 84.591 160.228 84.3112C160.135 84.0314 160.135 83.7516 160.135 83.3786V83.0988H161.72V83.6583" fill="#0D4C92"/>
<path d="M159.295 78.5283C159.202 78.5283 159.202 78.5283 159.108 78.5283C158.735 78.5283 158.456 78.6216 158.176 78.8081C157.896 78.9946 157.71 79.2744 157.523 79.6475V78.7149H155.751V85.8029H157.523V81.606C157.523 81.3263 157.523 81.1397 157.616 81.0465C157.71 80.8599 157.803 80.7667 157.896 80.6734C157.989 80.5801 158.176 80.4869 158.362 80.4869C158.549 80.4869 158.642 80.3936 158.829 80.3936C158.922 80.3936 159.015 80.3936 159.108 80.3936C159.202 80.3936 159.295 80.3936 159.388 80.3936V78.6216C159.388 78.5283 159.388 78.5283 159.295 78.5283Z" fill="#0D4C92"/>
<path d="M154.819 82.4459V82.0729C154.819 81.5133 154.819 81.0469 154.726 80.5806C154.632 80.1143 154.539 79.7412 154.353 79.4615C154.166 79.1817 153.886 78.9019 153.607 78.7153C153.233 78.5288 152.86 78.4355 152.301 78.4355C151.648 78.4355 151.182 78.5288 150.809 78.7153C150.436 78.9019 150.156 79.1817 149.969 79.5547C149.783 79.9278 149.689 80.3008 149.596 80.7672C149.503 81.2335 149.503 81.6998 149.503 82.1661C149.503 82.6324 149.503 83.0988 149.596 83.4718C149.596 83.9381 149.783 84.3112 149.876 84.6843C150.063 85.0573 150.342 85.3371 150.715 85.5236C151.088 85.7102 151.555 85.8967 152.208 85.8967C153.047 85.8967 153.7 85.7102 154.073 85.2438C154.446 84.7775 154.726 84.2179 154.726 83.3786H153.14C153.047 83.8449 152.954 84.1247 152.86 84.4045C152.767 84.591 152.487 84.7775 152.208 84.7775C152.021 84.7775 151.928 84.7775 151.835 84.6843C151.741 84.591 151.648 84.4977 151.555 84.3112C151.461 84.1247 151.461 83.9381 151.368 83.7516C151.368 83.5651 151.275 83.3786 151.275 83.0988V82.5392H154.819V82.4459ZM151.275 81.1402C151.275 80.9537 151.275 80.7672 151.368 80.6739C151.368 80.4874 151.461 80.3941 151.555 80.2076C151.648 80.1143 151.741 79.9278 151.835 79.9278C151.928 79.8345 152.114 79.8345 152.301 79.8345C152.487 79.8345 152.674 79.8345 152.767 79.9278C152.86 80.021 152.954 80.1143 153.047 80.3008C153.14 80.4874 153.14 80.5806 153.14 80.8604C153.14 81.0469 153.14 81.3267 153.233 81.6065H151.368V81.1402H151.275Z" fill="#0D4C92"/>
<path d="M148.756 82.4459V82.0729C148.756 81.5133 148.756 81.0469 148.663 80.5806C148.569 80.1143 148.476 79.7412 148.29 79.4615C148.103 79.1817 147.823 78.9019 147.45 78.7153C147.077 78.5288 146.704 78.4355 146.145 78.4355C145.492 78.4355 145.025 78.5288 144.652 78.7153C144.279 78.9019 144 79.1817 143.813 79.5547C143.626 79.9278 143.44 80.3008 143.44 80.7672C143.347 81.2335 143.347 81.6998 143.347 82.1661C143.347 82.6324 143.347 83.0988 143.44 83.4718C143.44 83.9381 143.626 84.3112 143.72 84.6843C143.906 85.0573 144.186 85.3371 144.559 85.5236C144.932 85.7102 145.399 85.8967 146.051 85.8967C146.891 85.8967 147.544 85.7102 147.917 85.2438C148.29 84.7775 148.569 84.2179 148.569 83.3786H146.984C146.891 83.8449 146.797 84.1247 146.704 84.4045C146.611 84.591 146.331 84.7775 146.051 84.7775C145.865 84.7775 145.772 84.7775 145.585 84.6843C145.492 84.591 145.398 84.4977 145.305 84.3112C145.212 84.1247 145.212 83.9381 145.119 83.7516C145.119 83.5651 145.119 83.3786 145.119 83.0988V82.5392H148.756V82.4459ZM145.212 81.1402C145.212 80.9537 145.212 80.7672 145.212 80.6739C145.212 80.4874 145.305 80.3941 145.398 80.2076C145.492 80.1143 145.585 79.9278 145.678 79.9278C145.772 79.8345 145.958 79.8345 146.145 79.8345C146.331 79.8345 146.518 79.8345 146.611 79.9278C146.704 80.021 146.797 80.1143 146.891 80.3008C146.984 80.4874 146.984 80.5806 146.984 80.8604C146.984 81.0469 146.984 81.3267 147.077 81.6065H145.212V81.1402Z" fill="#0D4C92"/>
<path d="M116.487 84.218V81.6998H119.658V80.1144H116.487V77.876H119.845V76.3838H114.622V85.7102H119.938V84.218H116.487Z" fill="#0D4C92"/>
<path d="M125.72 78.9946C125.44 78.7148 124.974 78.5283 124.414 78.5283C124.041 78.5283 123.668 78.6216 123.388 78.8081C123.108 78.9946 122.829 79.1812 122.642 79.5542V78.7149H120.87V85.8029H122.642V81.1397C122.642 80.3936 122.922 79.9273 123.575 79.9273C123.855 79.9273 124.041 80.0206 124.134 80.1138C124.228 80.3003 124.321 80.4869 124.321 80.8599V85.7097H126.093V80.4869C126.186 79.7408 126 79.2744 125.72 78.9946Z" fill="#0D4C92"/>
<path d="M132.715 85.3371V78.6221H130.943V79.3682C130.756 78.9951 130.57 78.7153 130.29 78.6221C130.01 78.5288 129.731 78.4355 129.544 78.4355C129.078 78.4355 128.705 78.5288 128.332 78.8086C128.052 78.9951 127.772 79.2749 127.679 79.648C127.492 80.021 127.399 80.3941 127.399 80.7672C127.306 81.2335 127.306 81.6065 127.306 82.0729C127.306 83.3786 127.492 84.3112 127.865 84.7775C128.238 85.3371 128.798 85.6169 129.451 85.6169C129.731 85.6169 130.01 85.5236 130.29 85.3371C130.57 85.1506 130.756 84.964 130.943 84.6843V85.6169C130.943 85.99 130.85 86.2697 130.756 86.4563C130.57 86.7361 130.383 86.8293 130.01 86.8293C129.917 86.8293 129.824 86.8293 129.731 86.7361C129.637 86.7361 129.544 86.6428 129.451 86.5495C129.264 86.4563 129.171 86.2697 129.171 85.9899H127.399C127.399 86.5495 127.585 87.0159 128.052 87.3889C128.425 87.762 129.078 87.8552 129.824 87.8552C130.85 87.8552 131.596 87.6687 132.062 87.2024C132.435 86.9226 132.715 86.2697 132.715 85.3371ZM130.943 83.0988C130.943 83.3786 130.85 83.5651 130.756 83.7516C130.663 83.9381 130.57 84.0314 130.477 84.1247C130.383 84.2179 130.197 84.3112 130.01 84.3112C129.824 84.3112 129.637 84.2179 129.544 84.1247C129.451 84.0314 129.357 83.8449 129.264 83.7516C129.171 83.5651 129.171 83.3786 129.171 83.192C129.171 83.0055 129.171 82.7257 129.171 82.5392C129.171 82.0729 129.171 81.6998 129.171 81.3267C129.171 80.9537 129.264 80.7672 129.264 80.5806C129.357 80.3941 129.451 80.2076 129.544 80.1143C129.637 80.021 129.824 80.021 130.01 80.021C130.383 80.021 130.663 80.2076 130.756 80.5806C130.85 80.9537 130.943 81.5133 130.943 82.4459C130.943 82.5392 130.943 82.819 130.943 83.0988Z" fill="#0D4C92"/>
<path d="M135.793 78.7148H134.021V85.8029H135.793V78.7148Z" fill="#0D4C92"/>
<path d="M135.793 76.29H134.021V77.8755H135.793V76.29Z" fill="#0D4C92"/>
<path d="M141.948 78.9946C141.669 78.7148 141.202 78.5283 140.643 78.5283C140.27 78.5283 139.897 78.6216 139.617 78.8081C139.337 78.9946 139.057 79.1812 138.871 79.5542V78.7149H137.099V85.8029H138.871V81.1397C138.871 80.3936 139.15 79.9273 139.803 79.9273C140.083 79.9273 140.27 80.0206 140.363 80.1138C140.456 80.3003 140.549 80.4869 140.549 80.8599V85.7097H142.321V80.4869C142.415 79.7408 142.321 79.2744 141.948 78.9946Z" fill="#0D4C92"/>
<path d="M70.2282 82.4459V82.0729C70.2282 81.5133 70.2282 81.0469 70.1349 80.5806C70.0416 80.1143 69.9484 79.7412 69.7619 79.4615C69.5753 79.1817 69.2955 78.9019 69.0157 78.7153C68.6427 78.5288 68.2696 78.4355 67.71 78.4355C67.0572 78.4355 66.5909 78.5288 66.2178 78.7153C65.8448 78.9019 65.565 79.1817 65.3784 79.5547C65.1919 79.9278 65.0986 80.3008 65.0054 80.7672C64.9121 81.2335 64.9121 81.6998 64.9121 82.1661C64.9121 82.6324 64.9121 83.0988 65.0054 83.4718C65.0054 83.9381 65.1919 84.3112 65.2852 84.6843C65.4717 85.0573 65.7515 85.3371 66.1245 85.5236C66.4976 85.7102 66.9639 85.8967 67.6168 85.8967C68.4562 85.8967 69.109 85.7102 69.4821 85.2438C69.8551 84.7775 70.1349 84.2179 70.1349 83.3786H68.5494C68.4562 83.8449 68.3629 84.1247 68.2696 84.4045C68.1764 84.591 67.8966 84.7775 67.6168 84.7775C67.4302 84.7775 67.337 84.7775 67.1505 84.6843C67.0572 84.591 66.9639 84.4977 66.8707 84.3112C66.7774 84.1247 66.7774 83.9381 66.6841 83.7516C66.6841 83.5651 66.6841 83.3786 66.6841 83.0988V82.5392H70.2282V82.4459ZM66.6841 81.1402C66.6841 80.9537 66.6841 80.7672 66.6841 80.6739C66.6841 80.4874 66.7774 80.3941 66.8707 80.2076C66.9639 80.1143 67.0572 79.9278 67.1505 79.9278C67.2437 79.8345 67.4302 79.8345 67.6168 79.8345C67.8033 79.8345 67.9898 79.8345 68.0831 79.9278C68.1764 80.021 68.2696 80.1143 68.3629 80.3008C68.4562 80.4874 68.4562 80.5806 68.4562 80.8604C68.4562 81.0469 68.4562 81.3267 68.5494 81.6065H66.6841V81.1402Z" fill="#0D4C92"/>
<path d="M74.4249 79.9273V78.7149H73.399V76.6631H71.627V78.7149H70.6943V79.9273H71.627V83.9377C71.627 84.3108 71.627 84.5906 71.7202 84.8703C71.7202 85.1501 71.8135 85.3367 72 85.4299C72.0933 85.6165 72.2798 85.7097 72.4664 85.7097C72.6529 85.7097 72.9327 85.803 73.3057 85.803C73.4923 85.803 73.6788 85.803 73.8653 85.803C74.0518 85.803 74.2384 85.803 74.4249 85.803V84.5905C74.3316 84.5905 74.3316 84.5905 74.2384 84.5905C74.1451 84.5905 74.0518 84.5905 74.0518 84.5905C73.7721 84.5905 73.5855 84.4973 73.4923 84.404C73.399 84.3108 73.399 84.1242 73.399 83.8444V80.0206H74.4249V79.9273Z" fill="#0D4C92"/>
<path d="M84.591 80.5806C84.4977 80.1143 84.3112 79.7412 84.1246 79.3682C83.9381 79.0884 83.6583 78.8086 83.2853 78.6221C82.9122 78.4356 82.4459 78.4355 81.9796 78.4355C81.42 78.4355 81.0469 78.5288 80.6739 78.7153C80.3008 78.9019 80.021 79.0884 79.8345 79.4615C79.648 79.7412 79.4614 80.1143 79.3682 80.5806C79.2749 81.0469 79.1816 81.6065 79.1816 82.1661C79.1816 82.819 79.1816 83.2853 79.2749 83.7516C79.3682 84.2179 79.5547 84.591 79.7412 84.8708C79.9278 85.1506 80.2075 85.4304 80.5806 85.5236C80.9537 85.7102 81.42 85.7102 81.8863 85.7102C82.4459 85.7102 82.8189 85.6169 83.192 85.5236C83.5651 85.3371 83.8448 85.1506 84.0314 84.8708C84.2179 84.591 84.4044 84.2179 84.4977 83.7516C84.591 83.2853 84.6842 82.7257 84.6842 82.1661C84.7775 81.6065 84.6842 81.0469 84.591 80.5806ZM82.7257 84.1247C82.6324 84.4977 82.3526 84.6843 81.9796 84.6843C81.793 84.6843 81.6065 84.591 81.42 84.4977C81.3267 84.4045 81.2335 84.2179 81.1402 84.0314C81.0469 83.8449 81.0469 83.5651 81.0469 83.2853C81.0469 83.0055 81.0469 82.6324 81.0469 82.2594C81.0469 81.8863 81.0469 81.6065 81.0469 81.2335C81.0469 80.9537 81.1402 80.6739 81.1402 80.4874C81.2335 80.3008 81.3267 80.1143 81.42 80.021C81.5132 79.9278 81.6998 79.8345 81.9796 79.8345C82.3526 79.8345 82.6324 80.021 82.7257 80.3941C82.9122 80.7672 82.9122 81.42 82.9122 82.2594C82.9122 83.0988 82.9122 83.7516 82.7257 84.1247Z" fill="#0D4C92"/>
<path d="M64.3522 78.1553C64.2589 77.7823 64.0724 77.5025 63.8859 77.2227C63.6994 76.9429 63.4196 76.7564 63.1398 76.5698C62.86 76.3833 62.3937 76.29 61.9273 76.29H58.6631V85.6165H60.5284V81.8859H61.5543C62.0206 81.8859 62.3937 81.7926 62.7667 81.6994C63.1398 81.6061 63.4196 81.4196 63.6994 81.233C63.9791 81.0465 64.1657 80.6735 64.2589 80.3937C64.4455 80.0206 64.4455 79.6476 64.4455 79.088C64.4455 78.8082 64.4455 78.4351 64.3522 78.1553ZM62.2071 80.3004C62.0206 80.4869 61.6475 80.6735 61.2745 80.6735H60.4351V77.7823H61.1812C61.6475 77.7823 62.0206 77.8755 62.2071 78.1553C62.3937 78.4351 62.4869 78.7149 62.4869 79.2745C62.5802 79.6475 62.4869 80.0206 62.2071 80.3004Z" fill="#0D4C92"/>
<path d="M78.6222 78.5283C78.5289 78.5283 78.5289 78.5283 78.4356 78.5283C78.0626 78.5283 77.7828 78.6216 77.503 78.8081C77.2232 78.9946 77.0367 79.2744 76.8501 79.6475V78.7149H75.0781V85.8029H76.8501V81.606C76.8501 81.3263 76.8501 81.1397 76.9434 81.0465C77.0367 80.8599 77.1299 80.7667 77.2232 80.6734C77.3165 80.5801 77.503 80.4869 77.6895 80.4869C77.8761 80.4869 77.9693 80.3936 78.1558 80.3936C78.2491 80.3936 78.3424 80.3936 78.4356 80.3936C78.5289 80.3936 78.6222 80.3936 78.7154 80.3936V78.6216C78.7154 78.5283 78.6222 78.5283 78.6222 78.5283Z" fill="#0D4C92"/>
<path d="M87.5748 76.3838H85.8027V85.7102H87.5748V76.3838Z" fill="#0D4C92"/>
<path d="M98.4869 78.7148V83.3781C98.4869 84.1242 98.2071 84.5905 97.5543 84.5905C97.2745 84.5905 97.0879 84.4972 96.9947 84.404C96.9014 84.2174 96.8082 84.0309 96.8082 83.6578V78.8081H95.0361V83.9376C95.0361 84.6838 95.2227 85.1501 95.5025 85.4299C95.7822 85.7097 96.2486 85.8962 96.8082 85.8962C97.1812 85.8962 97.5543 85.8029 97.8341 85.7097C98.1139 85.5231 98.3936 85.3366 98.5802 84.9635V85.8029H100.352V78.7148H98.4869Z" fill="#0D4C92"/>
<path d="M94.0104 82.4459V82.0729C94.0104 81.5133 94.0104 81.0469 93.9171 80.5806C93.8239 80.1143 93.7306 79.7412 93.5441 79.4615C93.3576 79.1817 93.0778 78.9019 92.798 78.7153C92.4249 78.5288 92.0518 78.4355 91.4923 78.4355C90.8394 78.4355 90.3731 78.5288 90 78.7153C89.627 78.9019 89.3472 79.1817 89.1607 79.5547C88.9741 79.9278 88.7876 80.3008 88.7876 80.7672C88.6943 81.2335 88.6943 81.6998 88.6943 82.1661C88.6943 82.6324 88.6943 83.0988 88.7876 83.4718C88.7876 83.9381 88.9741 84.3112 89.0674 84.6843C89.2539 85.0573 89.5337 85.3371 89.9068 85.5236C90.2798 85.7102 90.7462 85.8967 91.399 85.8967C92.2384 85.8967 92.8912 85.7102 93.2643 85.2438C93.6373 84.7775 93.9171 84.2179 93.9171 83.3786H92.3316C92.2384 83.8449 92.1451 84.1247 92.0518 84.4045C91.8653 84.591 91.6788 84.7775 91.399 84.7775C91.2125 84.7775 91.1192 84.7775 90.9327 84.6843C90.8394 84.591 90.7461 84.4977 90.6529 84.3112C90.5596 84.1247 90.5596 83.9381 90.4664 83.7516C90.4664 83.5651 90.4664 83.3786 90.4664 83.0988V82.5392H94.0104V82.4459ZM90.3731 81.1402C90.3731 80.9537 90.3731 80.7672 90.3731 80.6739C90.3731 80.4874 90.4664 80.3941 90.5596 80.2076C90.6529 80.1143 90.7462 79.9278 90.8394 79.9278C90.9327 79.8345 91.1192 79.8345 91.3057 79.8345C91.4923 79.8345 91.6788 79.8345 91.7721 79.9278C91.8653 80.021 91.9586 80.1143 92.0518 80.3008C92.1451 80.4874 92.1451 80.5806 92.1451 80.8604C92.1451 81.0469 92.1451 81.3267 92.2384 81.6065H90.3731V81.1402Z" fill="#0D4C92"/>
<path d="M109.772 78.9951C109.492 78.6221 109.026 78.4355 108.466 78.4355C108 78.4355 107.627 78.5288 107.347 78.7153C107.067 78.9019 106.787 79.1817 106.694 79.5547C106.601 79.1817 106.414 78.9019 106.134 78.7153C105.855 78.5288 105.482 78.4355 105.108 78.4355C104.735 78.4355 104.362 78.5288 104.083 78.6221C103.803 78.8086 103.523 78.9951 103.336 79.2749V78.5288H101.564V85.6169H103.336V80.9537C103.336 80.4874 103.43 80.2076 103.616 80.021C103.803 79.8345 103.989 79.7412 104.269 79.7412C104.549 79.7412 104.735 79.8345 104.829 80.021C104.922 80.2076 105.015 80.3941 105.015 80.6739V85.6169H106.787V80.9537C106.787 80.4874 106.881 80.2076 107.067 80.021C107.254 79.8345 107.44 79.7412 107.72 79.7412C108 79.7412 108.186 79.8345 108.279 80.021C108.373 80.2076 108.466 80.3941 108.466 80.6739V85.6169H110.238V80.4874C110.238 79.9278 110.051 79.3682 109.772 78.9951Z" fill="#0D4C92"/>
<path d="M16.0412 80.5806C15.9479 80.1143 15.7614 79.7412 15.5748 79.3682C15.3883 79.0884 15.1085 78.8086 14.7355 78.6221C14.3624 78.4356 13.8961 78.4355 13.4298 78.4355C12.8702 78.4355 12.4971 78.5288 12.1241 78.7153C11.751 78.9019 11.4712 79.0884 11.2847 79.4615C11.0982 79.7412 10.9116 80.1143 10.8184 80.5806C10.7251 81.0469 10.6318 81.6065 10.6318 82.1661C10.6318 82.819 10.6318 83.2853 10.7251 83.7516C10.8184 84.2179 11.0049 84.591 11.1914 84.8708C11.378 85.1506 11.6577 85.4304 12.0308 85.5236C12.4039 85.7102 12.8702 85.7102 13.3365 85.7102C13.8028 85.7102 14.2691 85.6169 14.6422 85.5236C15.0153 85.3371 15.295 85.1506 15.4816 84.8708C15.6681 84.591 15.8546 84.2179 15.9479 83.7516C16.0412 83.2853 16.1344 82.7257 16.1344 82.1661C16.1344 81.6065 16.1344 81.0469 16.0412 80.5806ZM14.1759 84.1247C14.0826 84.4977 13.8028 84.6843 13.4298 84.6843C13.2432 84.6843 13.0567 84.591 12.8702 84.4977C12.7769 84.4045 12.6836 84.2179 12.5904 84.0314C12.4971 83.8449 12.4971 83.5651 12.4971 83.2853C12.4971 83.0055 12.4971 82.6324 12.4971 82.2594C12.4971 81.8863 12.4971 81.6065 12.4971 81.2335C12.4971 80.9537 12.5904 80.6739 12.5904 80.4874C12.6836 80.3008 12.7769 80.1143 12.8702 80.021C12.9634 79.9278 13.15 79.8345 13.4298 79.8345C13.8028 79.8345 14.0826 80.021 14.1759 80.3941C14.3624 80.7672 14.3624 81.42 14.3624 82.2594C14.3624 83.0988 14.2691 83.7516 14.1759 84.1247Z" fill="#0D4C92"/>
<path d="M25.0884 78.7148H23.3164V85.8029H25.0884V78.7148Z" fill="#0D4C92"/>
<path d="M25.0884 76.29H23.3164V77.8755H25.0884V76.29Z" fill="#0D4C92"/>
<path d="M39.6373 78.7148L38.7047 83.5646L37.6788 78.7148H35.8135L37.772 85.8029C37.772 86.0827 37.6788 86.3625 37.4922 86.4558C37.3057 86.6423 37.1192 86.7356 36.7461 86.7356C36.5596 86.7356 36.4663 86.7356 36.2798 86.7356V88.0413H37.0259C37.399 88.0413 37.772 88.0413 38.0518 87.948C38.3316 87.8547 38.5181 87.7615 38.7979 87.5749C38.9845 87.3884 39.171 87.1086 39.2643 86.7356C39.4508 86.3625 39.544 85.8962 39.7306 85.3366L41.4093 78.7148H39.6373Z" fill="#0D4C92"/>
<path d="M53.9068 77.5962C54.0001 77.503 54.1866 77.503 54.4664 77.503H54.6529C54.7462 77.503 54.7462 77.503 54.8395 77.503V76.1973C54.5597 76.1973 54.1866 76.1973 53.9068 76.1973C53.627 76.1973 53.3472 76.1973 53.1607 76.2905C52.8809 76.3838 52.6944 76.4771 52.6011 76.5703C52.4146 76.6636 52.3213 76.8501 52.2281 77.1299C52.1348 77.3164 52.1348 77.5962 52.1348 77.9693V78.8087H51.2021V80.0211H52.1348V85.8035H53.9068V80.0211H54.9327V78.8087H53.9068V78.1558C53.7203 77.876 53.8135 77.6895 53.9068 77.5962Z" fill="#0D4C92"/>
<path d="M6.71492 85.8963C7.74083 85.8963 8.48695 85.7097 9.13979 85.2434C9.69938 84.7771 9.97917 84.031 9.97917 83.0983C9.97917 82.8185 9.97917 82.5387 9.88591 82.3522C9.79264 82.0724 9.69938 81.8859 9.60612 81.6994C9.51285 81.5128 9.32632 81.3263 9.04653 81.1398C8.86 80.9532 8.48695 80.7667 8.20715 80.6735L6.71492 80.0206C6.34187 79.8341 6.06207 79.6475 5.96881 79.461C5.87555 79.2745 5.78228 78.9947 5.78228 78.7149C5.78228 78.5284 5.78228 78.4351 5.78228 78.3418C5.78228 78.2486 5.87555 78.0621 5.96881 77.9688C6.06207 77.8755 6.15534 77.7823 6.34187 77.689C6.43513 77.5957 6.62166 77.5957 6.90145 77.5957C7.27451 77.5957 7.5543 77.689 7.64757 77.9688C7.8341 78.2486 7.92736 78.5284 7.92736 78.9947H9.69938V78.7149C9.69938 78.2486 9.60612 77.8755 9.51285 77.5957C9.32632 77.3159 9.13979 77.0362 8.95327 76.8496C8.67347 76.6631 8.39368 76.4766 8.02062 76.3833C7.64757 76.29 7.27451 76.29 6.90145 76.29C5.96881 76.29 5.31596 76.4766 4.75638 76.9429C4.19679 77.4092 4.01026 78.0621 4.01026 78.9947C4.01026 79.3678 4.10353 79.7408 4.19679 80.0206C4.29005 80.3004 4.47658 80.5802 4.66311 80.7667C4.66311 80.9532 4.9429 81.1398 5.2227 81.3263C5.50249 81.5128 5.87555 81.6061 6.34187 81.7926C6.62166 81.8859 6.90145 81.9792 7.08798 82.0724C7.27451 82.1657 7.46104 82.2589 7.64757 82.4455C7.74083 82.5387 7.8341 82.7253 7.92736 82.8185C8.02062 83.0051 8.02062 83.1916 8.02062 83.3781C8.02062 83.7512 7.92736 84.031 7.64757 84.2175C7.46104 84.404 7.18125 84.4973 6.90145 84.4973C6.62166 84.4973 6.43513 84.4973 6.2486 84.404C6.06207 84.3108 5.96881 84.2175 5.87555 84.1242C5.78228 84.031 5.68902 83.8444 5.68902 83.6579C5.59575 83.4714 5.59575 83.2849 5.59575 83.0983V82.8185H3.73047V83.1916C3.73047 84.031 3.917 84.6838 4.38332 85.1501C4.84964 85.6165 5.59575 85.8963 6.71492 85.8963Z" fill="#0D4C92"/>
<path d="M20.3311 84.3112C20.2379 84.591 19.9581 84.6843 19.6783 84.6843C19.4918 84.6843 19.3052 84.6843 19.212 84.591C19.1187 84.4977 19.0254 84.3112 18.9322 84.1247C18.8389 83.9381 18.8389 83.6583 18.7457 83.3786C18.7457 83.0988 18.7457 82.7257 18.7457 82.2594C18.7457 81.8863 18.7457 81.5133 18.7457 81.2335C18.7457 80.9537 18.8389 80.6739 18.9322 80.4874C19.0254 80.3008 19.1187 80.1143 19.212 80.021C19.3985 79.9278 19.4918 79.8345 19.7716 79.8345C19.9581 79.8345 20.0514 79.8345 20.1446 79.9278C20.2379 80.021 20.3311 80.1143 20.4244 80.2076C20.5177 80.3008 20.5177 80.4874 20.5177 80.6739C20.5177 80.8604 20.5177 81.0469 20.5177 81.1402H22.2897C22.2897 80.3008 22.1032 79.648 21.6368 79.1817C21.1705 78.7153 20.6109 78.4355 19.7716 78.4355C19.3052 78.4355 18.9322 78.5288 18.6524 78.6221C18.2793 78.7153 17.9995 78.9019 17.7197 79.1817C17.44 79.4615 17.2534 79.8345 17.1602 80.3008C17.0669 80.7672 16.9736 81.42 16.9736 82.0729C16.9736 82.819 17.0669 83.3786 17.1602 83.8449C17.2534 84.3112 17.44 84.6843 17.6265 84.964C17.813 85.2438 18.0928 85.4304 18.4659 85.5236C18.8389 85.6169 19.212 85.7102 19.6783 85.7102C20.6109 85.7102 21.3571 85.4304 21.7301 84.964C22.1032 84.4977 22.383 83.7516 22.383 82.819H20.5177C20.5177 83.5651 20.4244 84.0314 20.3311 84.3112Z" fill="#0D4C92"/>
<path d="M35.6271 79.9273V78.7149H34.6011V76.6631H32.8291V78.7149H31.8965V79.9273H32.8291V83.9377C32.8291 84.3108 32.8291 84.5906 32.9224 84.8703C32.9224 85.1501 33.0157 85.3367 33.2022 85.4299C33.2954 85.6165 33.482 85.7097 33.6685 85.7097C33.855 85.7097 34.1348 85.803 34.5079 85.803C34.6944 85.803 34.8809 85.803 35.0675 85.803C35.254 85.803 35.4405 85.803 35.6271 85.803V84.5905C35.5338 84.5905 35.5338 84.5905 35.4405 84.5905C35.3473 84.5905 35.3473 84.5905 35.254 84.5905C34.9742 84.5905 34.7877 84.4973 34.6944 84.404C34.6011 84.3108 34.6011 84.1242 34.6011 83.8444V80.0206H35.6271V79.9273Z" fill="#0D4C92"/>
<path d="M50.4562 80.5806C50.3629 80.1143 50.1764 79.7412 49.9899 79.3682C49.8034 79.0884 49.5236 78.8086 49.1505 78.6221C48.7774 78.4356 48.3111 78.4355 47.8448 78.4355C47.3785 78.4355 46.9122 78.5288 46.5391 78.7153C46.166 78.9019 45.8863 79.0884 45.6997 79.4615C45.5132 79.7412 45.3267 80.1143 45.2334 80.5806C45.1401 81.0469 45.0469 81.6065 45.0469 82.1661C45.0469 82.819 45.0469 83.2853 45.1401 83.7516C45.2334 84.2179 45.4199 84.591 45.6065 84.8708C45.793 85.1506 46.0728 85.4304 46.4458 85.5236C46.8189 85.7102 47.2852 85.7102 47.7515 85.7102C48.3111 85.7102 48.6842 85.6169 49.0572 85.5236C49.4303 85.3371 49.7101 85.1506 49.8966 84.8708C50.0831 84.591 50.2697 84.2179 50.3629 83.7516C50.4562 83.2853 50.5495 82.7257 50.5495 82.1661C50.5495 81.6065 50.5495 81.0469 50.4562 80.5806ZM48.5909 84.1247C48.4977 84.4977 48.2179 84.6843 47.8448 84.6843C47.6583 84.6843 47.4717 84.591 47.2852 84.4977C47.192 84.4045 47.0987 84.2179 47.0054 84.0314C46.9122 83.8449 46.9122 83.5651 46.9122 83.2853C46.9122 83.0055 46.9122 82.6324 46.9122 82.2594C46.9122 81.8863 46.9122 81.6065 46.9122 81.2335C46.9122 80.9537 47.0054 80.6739 47.0054 80.4874C47.0987 80.3008 47.192 80.1143 47.2852 80.021C47.3785 79.9278 47.565 79.8345 47.8448 79.8345C48.2179 79.8345 48.4977 80.021 48.5909 80.3941C48.7774 80.7672 48.7774 81.42 48.7774 82.2594C48.7774 83.0988 48.6842 83.7516 48.5909 84.1247Z" fill="#0D4C92"/>
<path d="M31.5236 82.4459V82.0729C31.5236 81.5133 31.5236 81.0469 31.4303 80.5806C31.3371 80.1143 31.2438 79.7412 31.0573 79.4615C30.8707 79.1817 30.5909 78.9019 30.2179 78.7153C29.8448 78.5288 29.4718 78.4355 28.9122 78.4355C28.2593 78.4355 27.793 78.5288 27.42 78.7153C27.0469 78.9019 26.7671 79.1817 26.5806 79.5547C26.3941 79.9278 26.2075 80.3008 26.2075 80.7672C26.1143 81.2335 26.1143 81.6998 26.1143 82.1661C26.1143 82.6324 26.1143 83.0988 26.2075 83.4718C26.2075 83.9381 26.3941 84.3112 26.4873 84.6843C26.6738 85.0573 26.9536 85.3371 27.3267 85.5236C27.6997 85.7102 28.1661 85.8967 28.8189 85.8967C29.6583 85.8967 30.3112 85.7102 30.6842 85.2438C31.0573 84.7775 31.3371 84.2179 31.3371 83.3786H29.7516C29.6583 83.8449 29.565 84.1247 29.4718 84.4045C29.3785 84.591 29.0987 84.7775 28.8189 84.7775C28.6324 84.7775 28.5391 84.7775 28.4459 84.6843C28.3526 84.591 28.2593 84.4977 28.1661 84.3112C27.9795 84.0314 27.9795 83.8449 27.9795 83.6583C27.9795 83.4718 27.9795 83.2853 27.9795 83.0055V82.4459H31.5236ZM27.8863 81.1402C27.8863 80.9537 27.8863 80.7672 27.8863 80.6739C27.8863 80.4874 27.9795 80.3941 28.0728 80.2076C28.1661 80.1143 28.2593 79.9278 28.3526 79.9278C28.4459 79.8345 28.6324 79.8345 28.8189 79.8345C29.0054 79.8345 29.192 79.8345 29.2852 79.9278C29.3785 80.021 29.4718 80.1143 29.565 80.3008C29.6583 80.4874 29.6583 80.5806 29.6583 80.8604C29.6583 81.0469 29.6583 81.3267 29.7516 81.6065H27.8863V81.1402Z" fill="#0D4C92"/>
<path d="M142.321 63.606H142.974L143.907 65.0982H144.466L143.44 63.606C143.907 63.5127 144.373 63.233 144.373 62.6734C144.373 62.0205 144 61.6475 143.161 61.6475H141.762V65.0982H142.321V63.606ZM142.321 62.1138H143.067C143.44 62.1138 143.814 62.207 143.814 62.5801C143.814 63.1397 143.44 63.1397 142.974 63.1397H142.321V62.1138Z" fill="#0D4C92"/>
<path d="M142.974 66.404C144.653 66.404 146.052 65.0983 146.052 63.3263C146.052 61.5542 144.653 60.3418 142.974 60.3418C141.295 60.3418 139.896 61.6475 139.896 63.3263C139.896 65.0983 141.295 66.404 142.974 66.404ZM142.974 60.9014C144.373 60.9014 145.399 62.0206 145.399 63.4195C145.399 64.9117 144.28 65.9377 142.974 65.9377C141.575 65.9377 140.549 64.9117 140.549 63.4195C140.456 61.9273 141.575 60.9014 142.974 60.9014Z" fill="#0D4C92"/>
<path d="M95.0362 39.917C94.0103 39.917 93.917 40.7564 93.917 41.4092C93.917 42.0621 94.1035 42.9014 95.0362 42.9014C95.9688 42.9014 96.1553 42.0621 96.1553 41.4092C96.1553 40.7564 95.9688 39.917 95.0362 39.917Z" fill="#0D4C92"/>
<path d="M83.9375 42.3423C83.9375 42.8086 84.2173 42.9019 84.4971 42.9019C85.0567 42.9019 85.6163 42.5288 85.6163 41.9693V41.3164C85.523 41.4097 85.3365 41.5029 84.7769 41.5962C84.3106 41.6895 83.9375 41.7827 83.9375 42.3423Z" fill="#0D4C92"/>
<path d="M103.989 42.3423C103.989 42.8086 104.269 42.9019 104.549 42.9019C105.108 42.9019 105.668 42.5288 105.668 41.9693V41.3164C105.575 41.4097 105.388 41.5029 104.829 41.5962C104.362 41.6895 103.989 41.7827 103.989 42.3423Z" fill="#0D4C92"/>
<path d="M84.8707 27.5127H82.9121V30.0308H84.6841C85.6168 30.0308 87.109 30.0308 87.109 28.7251C87.109 27.5127 85.8033 27.5127 84.8707 27.5127Z" fill="#0D4C92"/>
<path d="M115.088 1.86523C100.912 1.86523 88.8808 10.8186 84.2176 23.4093C79.6476 10.8186 67.6165 1.86523 53.4403 1.86523C35.3471 1.86523 20.6113 16.5077 20.6113 34.6943C20.6113 52.7875 35.3471 67.5233 53.4403 67.5233C67.6165 67.5233 79.6476 58.5699 84.3108 45.9792C88.8808 58.5699 101.005 67.5233 115.181 67.5233C133.275 67.5233 148.01 52.8808 148.01 34.6943C147.917 16.5077 133.181 1.86523 115.088 1.86523ZM60.5284 48.7772L59.2227 48.4041L59.1295 48.7772H58.1968L58.3834 47.0984L59.2227 47.2849L61.088 47.0984L59.6891 47.8445L60.5284 48.7772ZM59.5958 43.7409V37.3056H60.9015V43.7409H59.5958ZM59.6891 30.4974L59.4093 29.9378H60.5284L61.5543 28.259V25.9274L62.1139 24.715L62.86 25.9274H61.8341L62.5802 28.259L61.3678 30.4974H59.6891ZM61.8341 38.8911H63.0466V39.6373C63.1398 39.3575 63.5129 38.7979 64.4455 38.7979C65.3782 38.7979 66.1243 39.3575 66.1243 40.3834V43.6476H64.8186V40.7564C64.8186 40.3834 64.8186 39.8238 63.9792 39.8238C63.4196 39.8238 62.9533 40.1968 62.9533 40.943H63.1398V43.6476H61.8341V38.8911ZM64.9118 47.2849L65.5647 48.1243L67.2435 49.2435H64.5388L63.7927 48.1243L61.9274 47.2849H64.9118ZM67.1502 42.8082V39.917H66.4973V38.9844H67.1502V37.6787H68.3626V38.9844H69.1087V39.917H68.3626V42.5284C68.3626 42.8082 68.4559 42.9015 68.9222 42.9015C69.0155 42.9015 69.1087 42.9015 69.202 42.9015V43.8341C69.0155 43.8341 68.8289 43.8341 68.6424 43.8341H68.4559C67.3367 43.8341 67.1502 43.4611 67.1502 42.8082ZM66.2175 35.1606C65.2849 34.601 64.6321 33.6683 64.5388 32.5492H68.6424C68.7357 32.9222 69.0155 33.202 69.2953 33.3886C69.6683 33.5751 70.2279 33.6683 70.7875 33.6683C71.3471 33.6683 71.8134 33.5751 72.0932 33.3886C72.373 33.2953 72.5595 33.0155 72.6528 32.7357C72.6528 32.2694 71.9067 31.8963 70.6942 31.7098C70.5077 31.5233 70.3212 31.5233 70.1346 31.5233C69.2953 31.3367 68.3626 31.1502 67.7098 30.9637C67.1502 30.7772 66.6839 30.6839 66.4041 30.4974C65.8445 30.2176 65.3782 29.7512 65.1916 29.4715C65.0051 29.0051 64.9118 28.5388 64.9118 27.9792C64.9118 26.8601 65.2849 26.1139 66.1243 25.6476C67.1502 24.9948 68.5492 24.715 70.3212 24.715C72.0932 24.715 73.4922 25.088 74.4248 25.6476C75.4507 26.2072 76.0103 27.0466 76.1036 28.0725H72.1865C72.0932 27.6994 71.9067 27.4196 71.6269 27.3264C71.3471 27.0466 70.7875 27.0466 70.3212 27.0466C69.7616 27.0466 69.3885 27.1398 69.202 27.2331C69.0155 27.3264 68.8289 27.6062 68.8289 27.886C68.8289 28.3523 69.4818 28.7253 70.6942 28.9119C70.7875 28.9119 70.8808 28.9119 70.8808 28.9119C70.974 28.9119 71.1606 29.0051 71.2538 29.0051C71.4403 29.0051 71.5336 29.0051 71.7201 29.0984C73.2124 29.2849 74.3315 29.658 74.8911 29.9378C75.544 30.2176 75.917 30.5906 76.1968 30.9637C76.4766 31.3367 76.6631 31.8963 76.6631 32.3626C76.6631 33.5751 76.1036 34.5077 75.0777 35.1606C73.8652 35.8134 72.373 36.0932 70.5077 36.0932C68.7357 36.0932 67.3367 35.8134 66.2175 35.1606ZM26.2072 23.4093V22.5699L26.7668 22.3834L26.3937 20.7046H27.3264L27.2331 21.544L27.7927 22.943V23.9689H26.2072L26.487 23.6891L26.2072 23.4093ZM24.9015 21.544H25.7409L25.3678 22.8497H24.5284L24.9015 21.544ZM39.544 51.6683L38.2383 49.5233L40.3833 45.7927L42.0621 47.8445L39.544 51.6683ZM48.3108 42.2487L47.9378 41.4093L48.5906 40.3834L48.9637 41.1295L48.3108 42.2487ZM49.803 36.4663L47.4714 40.7564L45.5129 37.0259L44.6735 34.3212H42.8082L41.5025 31.3367H40.0103L42.0621 35.3471H42.8082L43.3678 36L40.3833 37.4922L37.8652 32.829L36.1865 32.6424L37.6787 36.6528L39.544 38.8911H42.2486L40.8497 41.5958L38.2383 43.7409L38.4248 45.6062L36.8393 48.4041L36.5595 50.3626L35.1606 53.5336H32.4559L29.7512 49.2435L30.7771 45.6062L29.2849 42.2487L29.9378 41.4093L29.0984 40.3834L24.6217 40.7564L22.8497 38.7046V34.0414L25.7409 31.2435L24.2486 30.3108L24.5284 28.4455L24.2486 27.7927H26.487V26.3937L25.5543 24.8082H28.3523L29.0984 22.943H29.7512L29.2849 22.0103L29.4714 21.544L30.3108 22.8497H32.4559L35.1606 21.1709V19.8652L33.2953 20.0518L32.7357 19.0259L33.4818 16.8808L33.0155 15.8549L31.3367 19.0259L31.9896 19.8652L31.1502 21.7305L30.3108 20.0518L29.7512 20.9844L29.0984 19.8652L29.2849 18.1865L32.7357 13.6165H35.4403L36.1865 15.4818H34.974L37.1191 16.8808L38.2383 13.8031H40.9429L43.3678 10.0725H53.3471L54.746 11.9378H63.6994L64.0725 12.7772L71.1606 13.1502L72.2797 13.8031L75.1709 13.9896L76.2901 14.4559H68.6424L69.202 15.4818L66.4973 19.0259L66.2175 17.5336L67.5233 15.6683L63.6994 17.9999L61.5543 22.0103L62.5802 22.1036L60.5284 25.6476H59.2227L58.3834 28.4455L59.2227 29.4715L58.5699 30.4974L57.544 28.4455H56.145L55.6787 30.1243L57.4507 31.8031L57.1709 33.9481L56.145 34.8808L53.7201 36.1865L55.0258 38.3316V40.0103L53.1606 41.1295L52.1346 38.7046V42.1554L52.974 43.2746V44.8601L52.1346 43.7409L51.4818 42.4352V37.5854L51.0155 36.4663H49.803ZM57.7305 46.259L57.4507 48.7772H55.4922L55.0258 47.658L55.6787 47.2849L57.1709 45.6062L57.7305 46.259ZM52.8808 46.9119L51.2953 44.9533V43.7409L53.6269 46.8186L54.1865 47.5647V48.4974L52.8808 46.9119ZM64.0725 59.4093H62.3937L61.088 57.917L59.2227 57.6373L55.0258 58.7564L53.9999 57.917L53.7201 54.6528L56.3315 53.1606L57.1709 51.1088L58.0103 51.4818L58.5699 51.1088L59.8756 50.829V51.6683L62.1139 52.5077L63.5129 49.5233L64.5388 52.5077L66.4041 55.4922L65.5647 57.6373L64.0725 59.4093ZM68.0828 61.1813H66.2175L67.5233 58.7564H68.4559L68.0828 59.8756H68.6424L68.0828 61.1813ZM69.202 57.6373H68.0828L68.9222 56.0518H70.2279L69.202 57.6373ZM74.0517 41.6891H70.7875C70.7875 42.0621 70.8808 42.9015 71.9067 42.9015C72.2797 42.9015 72.6528 42.715 72.746 42.3419H74.0517C73.6787 43.4611 72.746 43.8341 71.9067 43.8341C70.5077 43.8341 69.4818 43.1813 69.4818 41.2227C69.4818 40.6632 69.7616 38.7979 71.8134 38.7979C72.746 38.7979 74.0517 39.2642 74.0517 41.5025V41.6891ZM77.4093 40.1036C77.316 40.1036 77.1295 40.1036 77.0362 40.1036C76.1036 40.1036 75.917 40.6632 75.917 41.2227V43.6476H74.6113V38.8911H75.8238V39.7305C76.1036 39.2642 76.3834 38.7979 77.1295 38.7979C77.2227 38.7979 77.316 38.7979 77.4093 38.7979V40.1036ZM82.4455 43.6476H81.1398V40.7564C81.1398 40.3834 81.1398 39.8238 80.3004 39.8238C79.7409 39.8238 79.2745 40.1968 79.2745 40.943V43.6476H77.9688V38.8911H79.1813V39.6373C79.2745 39.3575 79.6476 38.7979 80.5802 38.7979C81.5129 38.7979 82.1657 39.3575 82.4455 40.3834V43.6476ZM87.202 43.7409H85.803C85.7098 43.5544 85.7098 43.4611 85.7098 43.1813C85.43 43.4611 84.9637 43.8341 84.1243 43.8341C83.3782 43.8341 82.6321 43.4611 82.6321 42.4352C82.6321 41.5025 83.1916 41.0362 84.031 40.943L85.1502 40.7564C85.3367 40.7564 85.6165 40.6632 85.7098 40.3834C85.7098 39.8238 85.1502 39.8238 84.8704 39.8238C84.3108 39.8238 84.1243 40.1968 84.1243 40.4766H82.9118C83.0984 38.9844 84.031 38.7979 85.0569 38.7979C85.7098 38.7979 86.9222 38.9844 86.9222 40.1968V42.8082C86.9222 43.3678 87.0155 43.4611 87.202 43.5544V43.7409ZM89.8134 43.7409C89.6269 43.7409 89.4403 43.7409 89.2538 43.7409H89.0673C87.9481 43.7409 87.7616 43.3678 87.7616 42.715H87.6683V39.8238H87.0155V38.8911H87.6683V37.5854H88.974V38.8911H89.7201V39.8238H88.974V42.4352C88.974 42.715 88.974 42.8082 89.5336 42.8082C89.6269 42.8082 89.7201 42.8082 89.8134 42.8082V43.7409ZM85.43 32.5492H82.7253V36H78.5284V24.8082H85.803C89.8134 24.8082 90.9326 27.3264 90.9326 28.6321C90.9326 31.1502 88.974 32.5492 85.43 32.5492ZM91.9585 43.7409H90.6528V38.9844H91.9585V43.7409ZM91.9585 38.4248H90.6528V37.2124H91.9585V38.4248ZM126.186 7.36783V5.78233L128.332 7.36783L131.596 11.1917L129.451 13.3367L128.332 16.6943H127.585L124.787 11.658H123.762L122.269 9.23311H120.777L119.938 7.36783H126.186ZM118.912 10.0725L119.378 10.6321H121.243L122.922 13.8031H123.948L125.161 16.3212H122.269L121.617 14.6424H120.218L119.565 13.3367H121.523L120.591 11.658H117.793L116.86 10.0725H118.912ZM92.8911 24.715H103.617V27.1398H97.088V28.9119H102.591V31.2435H97.088V33.202H103.99V35.7202H92.8911V24.715ZM95.0362 43.8341C93.7305 43.8341 92.6113 43.088 92.6113 41.316C92.6113 39.544 93.7305 38.7979 95.0362 38.7979C96.3419 38.7979 97.4611 39.544 97.4611 41.316C97.4611 43.088 96.3419 43.8341 95.0362 43.8341ZM102.404 43.6476H101.098V40.7564C101.098 40.3834 101.098 39.8238 100.259 39.8238C99.6994 39.8238 99.2331 40.1968 99.2331 40.943V43.6476H97.9274V38.8911H99.2331V39.6373C99.3264 39.3575 99.6994 38.7979 100.632 38.7979C101.565 38.7979 102.311 39.3575 102.404 40.3834V43.6476ZM107.254 43.7409H105.855C105.762 43.5544 105.762 43.4611 105.762 43.1813C105.482 43.4611 105.015 43.8341 104.176 43.8341C103.43 43.8341 102.684 43.4611 102.684 42.4352C102.684 41.5025 103.243 41.0362 104.083 40.943L105.202 40.7564C105.482 40.7564 105.668 40.6632 105.762 40.3834C105.762 39.8238 105.202 39.8238 104.922 39.8238C104.363 39.8238 104.176 40.1968 104.176 40.4766H102.964C103.15 38.9844 104.083 38.7979 105.109 38.7979C105.762 38.7979 106.974 38.9844 106.974 40.1968V42.8082C106.974 43.3678 107.067 43.4611 107.254 43.5544V43.7409ZM109.026 43.7409H107.72V37.3056H109.026V43.7409ZM130.85 43.7409V45.7927L127.865 47.8445L126.653 49.5233H125.067V51.1088L122.922 53.1606L123.482 56.2383L121.617 55.4922L120.777 53.5336L122.922 43.7409L120.404 41.8756L119.565 39.1709L120.404 36.6528H119.378L113.316 32.1761L110.984 27.6062H109.492L111.171 30.9637H110.611L108.746 27.6062L107.907 25.088L108 22.943L106.787 21.544L106.135 18.8393L104.083 17.5336L101.751 17.7202L100.072 19.0259L96.8082 20.7046H95.8756L98.6735 18.8393H96.9015L96.2486 17.7202L96.9015 16.8808H96.0621L95.689 16.3212H96.8082L96.0621 14.1761L97.8341 12.7772L105.762 13.3367L107.907 12.3108L112.01 13.1502L114.715 11.658H115.834L117.047 13.9896L117.699 12.9637H118.259L119.098 15.0155H116.394L115.554 17.5336L116.674 19.3057H118.072L118.819 20.4248L119.938 18.4663L118.912 16.3212H121.057L122.083 18.5595H124.601L124.321 17.7202H125.627L127.306 21.1709H122.269L122.922 22.3834H124.787L125.44 22.943H123.295L122.083 25.2746H121.057V26.3937L121.243 27.6062L119.938 29.0984L120.777 31.2435L120.218 31.3367L119.098 29.4715L115.368 29.3782L116.207 32.3626L117.233 33.202V32.3626H118.259L117.793 33.9481L119.098 35.6269L121.057 35.7202L121.523 34.8808H126L129.171 37.4922V38.7046H130.85L132.435 39.4507L132.528 42.4352L130.85 43.7409ZM124.601 33.0155V33.4818L122.456 33.0155H121.243V32.3626H122.456L124.601 33.0155ZM134.674 14.6424H132.995L131.969 12.3108H135.14L135.42 13.1502L134.674 14.6424Z" fill="#0D4C92"/>
<path d="M71.813 39.8242C71.1602 39.8242 70.8804 40.1973 70.7871 40.8501H72.7457C72.7457 40.104 72.1861 39.8242 71.813 39.8242Z" fill="#0D4C92"/>
<path d="M30.3112 32.0827L33.2956 32.8288V32.0827H36.1868L37.1194 30.1241H34.6013L34.3215 28.4454H38.4251L37.306 26.5801H35.1609L33.4821 29.0982L31.9899 26.3936H31.1505L32.1764 28.8184L31.1505 30.1241V28.8184L30.3112 26.7666L28.0728 27.606L27.3267 29.6578L25.7412 31.2433L30.1246 30.9635L30.3112 32.0827Z" fill="#0D4C92"/>
</svg>
